name D:\school\WTK\thesis\model\3dpredictsim\Results\batch_windlass\Pog_s1_tmt_bCst_d00_k800_WL30_ig24.mot
datacolumns 128
datarows 4
range 0.54034525 0.57276597
endheader
time	pelvis_tilt	pelvis_list	pelvis_rotation	pelvis_tx	pelvis_ty	pelvis_tz	hip_flexion_l	hip_adduction_l	hip_rotation_l	hip_flexion_r	hip_adduction_r	hip_rotation_r	knee_angle_l	knee_angle_r	ankle_angle_l	ankle_angle_r	subtalar_angle_l	subtalar_angle_r	tmt_angle_l	tmt_angle_r	mtp_angle_l	mtp_angle_r	lumbar_extension	lumbar_bending	lumbar_rotation	arm_flex_l	arm_add_l	arm_rot_l	arm_flex_r	arm_add_r	arm_rot_r	elbow_flex_l	elbow_flex_r	pro_sup_l	pro_sup_r	glut_med1_l/activation	glut_med2_l/activation	glut_med3_l/activation	glut_min1_l/activation	glut_min2_l/activation	glut_min3_l/activation	semimem_l/activation	semiten_l/activation	bifemlh_l/activation	bifemsh_l/activation	sar_l/activation	add_long_l/activation	add_brev_l/activation	add_mag1_l/activation	add_mag2_l/activation	add_mag3_l/activation	tfl_l/activation	pect_l/activation	grac_l/activation	glut_max1_l/activation	glut_max2_l/activation	glut_max3_l/activation	iliacus_l/activation	psoas_l/activation	quad_fem_l/activation	gem_l/activation	peri_l/activation	rect_fem_l/activation	vas_med_l/activation	vas_int_l/activation	vas_lat_l/activation	med_gas_l/activation	lat_gas_l/activation	soleus_l/activation	tib_post_l/activation	flex_dig_l/activation	flex_hal_l/activation	tib_ant_l/activation	per_brev_l/activation	per_long_l/activation	per_tert_l/activation	ext_dig_l/activation	ext_hal_l/activation	ercspn_l/activation	intobl_l/activation	extobl_l/activation	glut_med1_r/activation	glut_med2_r/activation	glut_med3_r/activation	glut_min1_r/activation	glut_min2_r/activation	glut_min3_r/activation	semimem_r/activation	semiten_r/activation	bifemlh_r/activation	bifemsh_r/activation	sar_r/activation	add_long_r/activation	add_brev_r/activation	add_mag1_r/activation	add_mag2_r/activation	add_mag3_r/activation	tfl_r/activation	pect_r/activation	grac_r/activation	glut_max1_r/activation	glut_max2_r/activation	glut_max3_r/activation	iliacus_r/activation	psoas_r/activation	quad_fem_r/activation	gem_r/activation	peri_r/activation	rect_fem_r/activation	vas_med_r/activation	vas_int_r/activation	vas_lat_r/activation	med_gas_r/activation	lat_gas_r/activation	soleus_r/activation	tib_post_r/activation	flex_dig_r/activation	flex_hal_r/activation	tib_ant_r/activation	per_brev_r/activation	per_long_r/activation	per_tert_r/activation	ext_dig_r/activation	ext_hal_r/activation	ercspn_r/activation	intobl_r/activation	extobl_r/activation	
          0.54034525	         -2.93017646	          1.63553252	         -5.30165000	          0.67543157	          0.86033324	          0.00167413	         31.75203691	          2.24566368	         -2.38061211	        -17.67690451	         -1.14535045	          6.83122608	        -16.40591148	         -7.31130670	          6.40218041	          2.39852603	         -0.14170961	         10.42611005	         -0.25926743	         -7.35963550	          0.81082312	         26.13395655	         -1.42905463	          0.23046940	          1.91858296	         -8.31144732	        -13.47737981	          6.67645631	          5.49227436	        -13.45183216	         15.28843542	         16.98128910	         34.19683215	         86.51662706	         86.51662706	          0.06371663	          0.06963162	          0.05000024	          0.05000038	          0.05000061	          0.05002903	          0.05129615	          0.05900627	          0.06091917	          0.05000077	          0.05000049	          0.09227196	          0.12325055	          0.16660858	          0.16367606	          0.10741296	          0.05900346	          0.05000291	          0.05900708	          0.05900639	          0.05900614	          0.09892931	          0.05000027	          0.05066343	          0.25363890	          0.05000036	          0.05000096	          0.05000085	          0.08331000	          0.09058134	          0.07068117	          0.05000003	          0.05000017	          0.05000002	          0.05672003	          0.05901024	          0.05900951	          0.47201898	          0.34251882	          0.21957037	          0.11368010	          0.52214146	          0.21898401	          0.06240893	          0.12318650	          0.12632130	          0.34921960	          0.09828099	          0.06963759	          0.34353187	          0.21284624	          0.10196289	          0.05000409	          0.05000050	          0.05000033	          0.07163618	          0.09735648	          0.05000261	          0.05000046	          0.05000055	          0.05000175	          0.05000430	          0.27335880	          0.05000149	          0.05000052	          0.05000356	          0.05000263	          0.05000219	          0.32211498	          0.53551012	          0.05000015	          0.05000072	          0.05171788	          0.19903961	          0.05010395	          0.08541813	          0.05997804	          0.30689673	          0.39945069	          0.26559082	          0.24358869	          0.20272949	          0.29906291	          0.05000002	          0.10170127	          0.18127920	          0.05000023	          0.05000005	          0.05000014	          0.05000000	          0.05000007	          0.05000005	
          0.55115216	         -2.92709413	          1.69961490	         -5.56272683	          0.69167898	          0.85955257	          0.00148175	         31.10873896	          2.57909240	         -2.17861016	        -17.58667243	         -1.41580150	          6.60725945	        -15.85432261	         -9.07814007	          6.05972214	          1.55247878	         -0.60676995	         11.29104857	         -0.32949926	         -8.01768159	          1.03002863	         27.38576718	         -1.23669373	          0.01666830	          1.98990725	         -9.31202907	        -13.46436305	          6.51575839	          5.31175307	        -13.46034170	         15.59060669	         16.81217389	         35.23468148	         86.51662706	         86.51662706	          0.05399210	          0.05900488	          0.21669637	          0.05900584	          0.05900577	          0.05000177	          0.05000110	          0.05000054	          0.05900612	          0.05000020	          0.05000228	          0.11444345	          0.26792039	          0.20829583	          0.16644361	          0.11191380	          0.05000013	          0.07044259	          0.05000171	          0.05000066	          0.05000039	          0.15328244	          0.05900635	          0.05031763	          0.22469059	          0.22189940	          0.14435422	          0.06120406	          0.17093364	          0.16680844	          0.14468773	          0.05129076	          0.05000042	          0.05377523	          0.05000002	          0.05000393	          0.05000336	          0.61680843	          0.34103312	          0.18605939	          0.47561911	          0.59782612	          0.34582163	          0.05305820	          0.10438517	          0.10704152	          0.32606577	          0.08328087	          0.05900919	          0.29110054	          0.18036065	          0.08640084	          0.05000091	          0.05000018	          0.05000015	          0.06070273	          0.08249787	          0.10949041	          0.13361883	          0.05000395	          0.05000231	          0.05000038	          0.23163754	          0.10988923	          0.05000587	          0.05000155	          0.05000089	          0.05000070	          0.27295238	          0.48919527	          0.05000036	          0.05000083	          0.05000035	          0.16866127	          0.12989333	          0.07238706	          0.10911575	          0.26005662	          0.33848454	          0.22505502	          0.20641116	          0.17178866	          0.25341868	          0.05000001	          0.08617917	          0.15361160	          0.05000010	          0.05000002	          0.05000011	          0.05000015	          0.05000061	          0.05000006	
          0.56195906	         -2.91907309	          1.76630012	         -5.79750448	          0.70821662	          0.85868665	          0.00129440	         30.35629668	          2.89221780	         -1.91988550	        -17.41670207	         -1.68121650	          6.37120911	        -15.92969630	        -11.00288130	          5.51328301	          0.57882415	         -1.08677874	         12.11780956	         -0.45758240	         -8.57360162	          1.28575895	         28.35097585	         -1.02366027	         -0.21034155	          2.05258677	        -10.32317007	        -13.45593716	          6.40266168	          5.05681494	        -13.47118611	         15.83116850	         16.65932521	         36.23823443	         86.51662706	         86.51662706	          0.05000003	          0.05000007	          0.18362319	          0.05000012	          0.05000011	          0.05000015	          0.05000009	          0.05000028	          0.05000038	          0.05000010	          0.05000030	          0.09697666	          0.22702933	          0.28834609	          0.21457394	          0.13309066	          0.05000112	          0.05969285	          0.07378357	          0.06072132	          0.10499202	          0.12988783	          0.05000063	          0.05000058	          0.32191211	          0.18803205	          0.12232222	          0.05900665	          0.21124922	          0.21706514	          0.18472347	          0.05900591	          0.05900619	          0.05561270	          0.05900578	          0.05000067	          0.05000049	          0.52266833	          0.35642625	          0.20267320	          0.40676974	          0.55518013	          0.29304071	          0.05000000	          0.08845339	          0.09070431	          0.27630006	          0.07057015	          0.05000311	          0.24667149	          0.15283316	          0.07321395	          0.05000344	          0.05000058	          0.05000087	          0.05143802	          0.06990684	          0.18992267	          0.24256847	          0.07125360	          0.05900755	          0.07919248	          0.19628395	          0.09311811	          0.05000121	          0.05003575	          0.05006070	          0.05900194	          0.23129308	          0.45214993	          0.05489502	          0.05001237	          0.05000021	          0.14291938	          0.13506012	          0.15315965	          0.13505688	          0.22036548	          0.28682335	          0.19070600	          0.17490769	          0.14556958	          0.21474074	          0.05000046	          0.07302614	          0.13865569	          0.05000015	          0.05578967	          0.05000050	          0.05405879	          0.05900582	          0.06024130	
          0.57276597	         -2.90756473	          1.84093887	         -6.00194356	          0.72492792	          0.85772937	          0.00111811	         29.44484728	          3.16144762	         -1.64387045	        -17.16704205	         -1.94241444	          6.12620990	        -16.26271342	        -13.07061503	          5.21960758	         -0.49046556	         -1.57988403	         12.87807835	         -1.08409632	         -9.00173417	          1.37767375	         28.87346012	         -0.80013234	         -0.45405522	          2.10351396	        -11.31299238	        -13.45708292	          6.37073036	          4.74496050	        -13.48146563	         16.01377695	         16.49247798	         37.20226909	         86.51662706	         86.51662706	          0.24286292	          0.25392771	          0.34172031	          0.28152646	          0.19400964	          0.16850952	          0.07574479	          0.06325763	          0.07409725	          0.08217374	          0.05900581	          0.08217563	          0.19237901	          0.24433737	          0.18182476	          0.11277976	          0.05000032	          0.05058269	          0.06252255	          0.18555193	          0.15347042	          0.11006386	          0.05000031	          0.05000028	          0.27278041	          0.15933384	          0.18761897	          0.05000079	          0.17900739	          0.18393569	          0.15653013	          0.05000025	          0.05000049	          0.05157953	          0.05000004	          0.05900580	          0.05900563	          0.62303539	          0.36941769	          0.18792378	          0.65519000	          0.63847415	          0.38391382	          0.05000093	          0.09697588	          0.07686057	          0.34542403	          0.05979940	          0.05000002	          0.30488906	          0.12950707	          0.06203972	          0.05000262	          0.05000015	          0.05000011	          0.05000027	          0.05923788	          0.16093600	          0.21479307	          0.06037877	          0.05000258	          0.06710593	          0.16632654	          0.07892173	          0.05000054	          0.05000058	          0.05000038	          0.05000029	          0.19599205	          0.41982595	          0.05000004	          0.05000021	          0.05000016	          0.12110633	          0.11444663	          0.12978372	          0.11444387	          0.18673219	          0.24304694	          0.16159949	          0.14821244	          0.12335215	          0.18196603	          0.09927743	          0.16141326	          0.16549956	          0.19046957	          0.16107959	          0.08668934	          0.07110819	          0.05000007	          0.05104699	
